# Blender v2.78 (sub 0) OBJ File: ''
# www.blender.org
mtllib shadowtest.mtl
o Cube
v -0.503576 -0.503576 -0.746438
v 0.503576 -0.503576 -0.746438
v 0.503576 -0.503576 0.746438
v -0.503577 -0.503576 0.746438
v -0.503576 0.873235 -0.746438
v 0.503577 0.184746 -0.746437
v 0.503576 0.184746 0.746438
v -0.503576 0.873235 0.746438
v -0.326014 -0.503576 -0.746438
v 0.326014 -0.503576 -0.746438
v 0.326014 -0.503576 0.746438
v -0.326015 -0.503576 0.746438
v -0.326014 0.873235 -0.746438
v 0.326015 0.184746 -0.746438
v 0.326014 0.184746 0.746438
v -0.326014 0.873235 0.746438
v -0.503576 -0.349736 -0.746438
v 0.503576 -0.349736 -0.746438
v 0.503576 -0.349736 0.746438
v -0.503577 -0.349736 0.746438
v 0.326014 -0.349736 0.746438
v -0.326015 -0.349736 0.746438
v -0.326014 -0.349736 -0.746438
v 0.326014 -0.349736 -0.746438
vt 0.8885 0.0000
vt 0.9440 0.0000
vt 0.9440 0.3333
vt 0.8885 0.3333
vt 0.8998 0.3333
vt 0.8998 0.6667
vt 0.8444 0.6667
vt 0.8444 0.3333
vt 0.0555 0.5066
vt 0.0555 0.6835
vt 0.0000 0.6835
vt 0.0000 0.5066
vt 0.7963 0.6667
vt 0.6293 0.6667
vt 0.6293 0.3333
vt 0.7963 0.3333
vt 0.2592 0.4048
vt 0.2592 0.0000
vt 0.3147 0.0000
vt 0.3147 0.4048
vt 0.6293 0.4048
vt 0.6293 0.4557
vt 0.3147 0.4557
vt 0.0000 0.4048
vt 0.0000 0.2279
vt 0.0555 0.2279
vt 0.0555 0.4048
vt 1.0000 0.6667
vt 1.0000 1.0000
vt 0.8330 1.0000
vt 0.8330 0.6667
vt 0.3147 0.5066
vt 0.3147 0.9114
vt 0.2592 0.9114
vt 0.2592 0.5066
vt 0.8330 1.0000
vt 0.6293 1.0000
vt 0.6293 0.6667
vt 0.8330 0.6667
vt 0.9994 0.0000
vt 0.9994 0.3333
vt 0.9440 0.3333
vt 0.9440 0.0000
vt 0.3147 0.8604
vt 0.3147 0.4557
vt 0.6293 0.4557
vt 0.6293 0.8604
vt 0.6293 0.0000
vt 0.6848 0.0000
vt 0.6848 0.3333
vt 0.6293 0.3333
vt 0.2592 0.4557
vt 0.0555 0.4557
vt 0.3147 0.4557
vt 0.0555 0.4557
vt 0.2592 0.4557
vt 0.0000 0.4557
vt 0.6293 0.0000
vt 0.8444 0.6667
vt 0.8444 0.3333
vt 0.0000 0.4557
vn 0.0000 -1.0000 0.0000
vn 0.0000 1.0000 0.0000
vn 0.0000 0.0000 -1.0000
vn 1.0000 -0.0000 0.0000
vn -0.0000 -0.0000 1.0000
vn -1.0000 -0.0000 -0.0000
usemtl Material
s off
f 10/1/1 2/2/1 3/3/1 11/4/1
f 14/5/2 15/6/2 7/7/2 6/8/2
f 24/9/3 14/10/3 6/11/3 18/12/3
f 18/13/4 6/14/4 7/15/4 19/16/4
f 22/17/5 16/18/5 8/19/5 20/20/5
f 17/21/6 1/22/6 4/23/6 20/20/6
f 19/24/5 7/25/5 15/26/5 21/27/5
f 24/28/6 21/29/6 15/30/6 14/31/6
f 17/32/3 5/33/3 13/34/3 23/35/3
f 24/36/2 23/37/2 22/38/2 21/39/2
f 5/40/2 8/41/2 16/42/2 13/43/2
f 23/44/4 13/45/4 16/46/4 22/47/4
f 1/48/1 9/49/1 12/50/1 4/51/1
f 9/49/1 10/1/1 11/4/1 12/50/1
f 9/52/3 23/35/3 24/9/3 10/53/3
f 1/54/3 17/32/3 23/35/3 9/52/3
f 11/55/5 21/27/5 22/17/5 12/56/5
f 3/57/5 19/24/5 21/27/5 11/55/5
f 5/58/6 17/21/6 20/20/6 8/19/6
f 12/56/5 22/17/5 20/20/5 4/23/5
f 2/59/4 18/13/4 19/16/4 3/60/4
f 10/53/3 24/9/3 18/12/3 2/61/3
