# Blender v2.79 (sub 0) OBJ File: ''
# www.blender.org
mtllib shadowtest.mtl
o Cube
v 0.576721 -0.576721 -0.576721
v 0.576721 -0.576721 0.576721
v -0.576721 -0.576721 0.576721
v -0.576721 -0.576721 -0.576721
v 0.576721 0.576721 -0.576721
v 0.576721 0.576721 0.576722
v -0.576721 0.576721 0.576721
v -0.576721 0.576721 -0.576721
v 0.444178 -0.500000 -0.444178
v 0.444178 -0.500000 0.444178
v -0.444178 -0.500000 0.444178
v -0.444178 -0.500000 -0.444178
v 0.444178 0.500000 -0.444177
v -0.444178 0.500000 -0.444178
v -0.444178 0.500000 0.444178
v 0.444177 0.500000 0.444178
v 0.500000 -0.444178 -0.444178
v 0.500000 0.444178 -0.444177
v 0.500000 0.444178 0.444178
v 0.500000 -0.444178 0.444178
v 0.444178 -0.444178 0.500000
v 0.444177 0.444178 0.500000
v -0.444178 0.444178 0.500000
v -0.444178 -0.444178 0.500000
v -0.500000 -0.444178 0.444178
v -0.500000 0.444178 0.444178
v -0.500000 0.444178 -0.444178
v -0.500000 -0.444178 -0.444178
v 0.444178 0.444178 -0.500000
v 0.444178 -0.444178 -0.500000
v -0.444178 -0.444178 -0.500000
v -0.444178 0.444178 -0.500000
v 0.449178 -0.632885 -0.449178
v 0.449178 -0.632885 0.449178
v -0.449178 -0.632885 -0.449178
v -0.449178 -0.632885 0.449178
v 0.449178 0.632885 -0.449177
v -0.449178 0.632885 -0.449178
v 0.449177 0.632885 0.449178
v -0.449178 0.632885 0.449178
v 0.632885 -0.449178 -0.449178
v 0.632885 0.449178 -0.449177
v 0.632885 -0.449178 0.449178
v 0.632885 0.449178 0.449178
v 0.449178 -0.449178 0.632885
v 0.449177 0.449178 0.632885
v -0.449178 -0.449178 0.632885
v -0.449178 0.449178 0.632885
v -0.632885 -0.449178 0.449178
v -0.632885 0.449178 0.449178
v -0.632885 -0.449178 -0.449178
v -0.632885 0.449178 -0.449178
v 0.449178 -0.449178 -0.632885
v 0.449178 0.449178 -0.632885
v -0.449178 0.449178 -0.632885
v -0.449178 -0.449178 -0.632885
vn 0.4030 -0.9152 0.0000
vn -0.0000 -0.9152 0.4030
vn -0.4030 -0.9152 -0.0000
vn 0.0000 -0.9152 -0.4030
vn 0.0000 0.9152 -0.4030
vn -0.4030 0.9152 -0.0000
vn -0.0000 0.9152 0.4030
vn 0.4030 0.9152 0.0000
vn 0.9152 -0.0000 -0.4030
vn 0.9152 0.4030 0.0000
vn 0.9152 0.0000 0.4030
vn 0.9152 -0.4030 -0.0000
vn 0.4030 -0.0000 0.9152
vn -0.0000 0.4030 0.9152
vn -0.4030 0.0000 0.9152
vn -0.0000 -0.4030 0.9152
vn -0.9152 -0.0000 0.4030
vn -0.9152 0.4030 -0.0000
vn -0.9152 -0.0000 -0.4030
vn -0.9152 -0.4030 -0.0000
vn 0.4030 0.0000 -0.9152
vn 0.0000 -0.4030 -0.9152
vn -0.4030 0.0000 -0.9152
vn 0.0000 0.4030 -0.9152
vn -0.9993 -0.0376 0.0000
vn -0.0000 -0.0376 0.9993
vn 0.0000 -0.0376 -0.9993
vn 0.9993 -0.0376 0.0000
vn -0.0000 0.0376 0.9993
vn -0.9993 0.0376 -0.0000
vn 0.9993 0.0376 0.0000
vn 0.0000 0.0376 -0.9993
vn 0.0376 -0.0000 0.9993
vn 0.0376 0.9993 0.0000
vn 0.0376 -0.9993 0.0000
vn 0.0376 0.0000 -0.9993
vn -0.9993 -0.0000 0.0376
vn 0.0000 0.9993 0.0376
vn -0.0000 -0.9993 0.0376
vn 0.9993 0.0000 0.0376
vn -0.0376 -0.0000 -0.9993
vn -0.0376 0.9993 -0.0000
vn -0.0376 -0.9993 -0.0000
vn -0.0376 -0.0000 0.9993
vn -0.9993 0.0000 -0.0376
vn 0.0000 -0.9993 -0.0376
vn -0.0000 0.9993 -0.0376
vn 0.9993 0.0000 -0.0376
vn 0.5774 -0.5774 0.5774
vn 0.5774 -0.5773 -0.5774
vn -0.5773 -0.5774 -0.5774
vn -0.5774 -0.5774 0.5774
vn 0.5773 0.5774 0.5774
vn -0.5774 0.5774 0.5774
vn -0.5774 0.5774 -0.5774
vn 0.5774 0.5773 -0.5774
vn 0.0000 0.7071 -0.7071
vn -0.7071 -0.0000 -0.7071
vn 0.0000 -0.7071 -0.7071
vn -0.7071 -0.7071 -0.0000
vn -0.0000 -0.7071 0.7071
vn -0.0000 0.7071 0.7071
vn -0.7071 0.7071 0.0000
vn 0.7071 -0.0000 0.7071
vn 0.7071 -0.7071 0.0000
vn 0.7071 0.7071 0.0000
vn 0.7071 -0.0000 -0.7071
vn -0.7071 0.0000 0.7071
usemtl Material
s off
f 1//1 2//1 34//1 33//1
f 2//2 3//2 36//2 34//2
f 3//3 4//3 35//3 36//3
f 4//4 1//4 33//4 35//4
f 5//5 8//5 38//5 37//5
f 8//6 7//6 40//6 38//6
f 7//7 6//7 39//7 40//7
f 6//8 5//8 37//8 39//8
f 1//9 5//9 42//9 41//9
f 5//10 6//10 44//10 42//10
f 6//11 2//11 43//11 44//11
f 2//12 1//12 41//12 43//12
f 2//13 6//13 46//13 45//13
f 6//14 7//14 48//14 46//14
f 7//15 3//15 47//15 48//15
f 3//16 2//16 45//16 47//16
f 3//17 7//17 50//17 49//17
f 7//18 8//18 52//18 50//18
f 8//19 4//19 51//19 52//19
f 4//20 3//20 49//20 51//20
f 5//21 1//21 53//21 54//21
f 1//22 4//22 56//22 53//22
f 4//23 8//23 55//23 56//23
f 8//24 5//24 54//24 55//24
f 33//25 34//25 10//25 9//25
f 35//26 33//26 9//26 12//26
f 34//27 36//27 11//27 10//27
f 36//28 35//28 12//28 11//28
f 37//29 38//29 14//29 13//29
f 39//30 37//30 13//30 16//30
f 38//31 40//31 15//31 14//31
f 40//32 39//32 16//32 15//32
f 41//33 42//33 18//33 17//33
f 43//34 41//34 17//34 20//34
f 42//35 44//35 19//35 18//35
f 44//36 43//36 20//36 19//36
f 45//37 46//37 22//37 21//37
f 47//38 45//38 21//38 24//38
f 46//39 48//39 23//39 22//39
f 48//40 47//40 24//40 23//40
f 49//41 50//41 26//41 25//41
f 51//42 49//42 25//42 28//42
f 50//43 52//43 27//43 26//43
f 52//44 51//44 28//44 27//44
f 54//45 53//45 30//45 29//45
f 55//46 54//46 29//46 32//46
f 53//47 56//47 31//47 30//47
f 56//48 55//48 32//48 31//48
f 27//49 32//49 14//49
f 15//50 23//50 26//50
f 19//51 22//51 16//51
f 18//52 13//52 29//52
f 12//53 31//53 28//53
f 17//54 30//54 9//54
f 20//55 10//55 21//55
f 11//56 25//56 24//56
f 11//57 24//57 21//57 10//57
f 19//58 20//58 21//58 22//58
f 15//59 16//59 22//59 23//59
f 16//60 13//60 18//60 19//60
f 14//61 32//61 29//61 13//61
f 12//62 9//62 30//62 31//62
f 10//63 20//63 17//63 9//63
f 27//64 28//64 31//64 32//64
f 14//65 15//65 26//65 27//65
f 12//66 28//66 25//66 11//66
f 23//67 24//67 25//67 26//67
f 18//68 29//68 30//68 17//68
